<?xml version="1.0" standalone="no"?>
<!DOCTYPE svg PUBLIC "-//W3C//DTD SVG 20010904//EN"
 "http://www.w3.org/TR/2001/REC-SVG-20010904/DTD/svg10.dtd">
<svg version="1.0" xmlns="http://www.w3.org/2000/svg"
 width="24.000000pt" height="24.000000pt" viewBox="0 0 24.000000 24.000000"
 preserveAspectRatio="xMidYMid meet">
<metadata>
Created by potrace 1.10, written by Peter Selinger 2001-2011
</metadata>
<g transform="translate(0.000000,24.000000) scale(0.100000,-0.100000)"
fill="#000000" stroke="none">
<path d="M90 205 c-19 -20 -44 -35 -57 -35 -21 0 -23 -4 -23 -50 0 -45 2 -50
22 -50 12 0 39 -17 60 -37 l38 -37 0 122 c0 67 -1 122 -3 122 -2 0 -18 -16
-37 -35z m30 -87 l0 -92 -28 27 c-15 15 -38 27 -50 27 -19 0 -22 5 -22 40 0
35 3 40 23 40 13 0 34 11 47 25 13 14 25 25 27 25 2 0 3 -41 3 -92z"/>
<path d="M165 140 c17 -19 17 -21 0 -40 -10 -11 -15 -20 -10 -20 4 0 14 8 20
17 12 17 14 17 34 -1 12 -11 21 -16 21 -11 0 4 -8 14 -17 21 -17 13 -17 15 0
28 9 7 17 17 17 21 0 5 -9 0 -21 -11 -20 -18 -22 -18 -34 -1 -6 9 -16 17 -20
17 -5 0 0 -9 10 -20z"/>
</g>
</svg>
