<?xml version="1.0" standalone="no"?>
<!DOCTYPE svg PUBLIC "-//W3C//DTD SVG 20010904//EN"
 "http://www.w3.org/TR/2001/REC-SVG-20010904/DTD/svg10.dtd">
<svg version="1.0" xmlns="http://www.w3.org/2000/svg"
 width="24.000000pt" height="24.000000pt" viewBox="0 0 24.000000 24.000000"
 preserveAspectRatio="xMidYMid meet">
<metadata>
Created by potrace 1.10, written by Peter Selinger 2001-2011
</metadata>
<g transform="translate(0.000000,24.000000) scale(0.100000,-0.100000)"
fill="#000000" stroke="none">
<path d="M90 205 c-19 -20 -44 -35 -57 -35 -21 0 -23 -4 -23 -50 0 -45 2 -50
22 -50 12 0 39 -17 60 -37 l38 -37 0 122 c0 67 -1 122 -3 122 -2 0 -18 -16
-37 -35z m30 -87 l0 -102 -33 32 c-18 18 -41 32 -50 32 -13 0 -17 9 -17 40 0
32 4 40 18 40 10 0 31 14 47 30 16 17 30 30 32 30 2 0 3 -46 3 -102z"/>
<path d="M177 185 c58 -25 58 -105 0 -130 -18 -8 -25 -14 -16 -15 9 0 28 9 43
21 37 29 37 89 0 118 -15 12 -34 21 -43 21 -9 -1 -2 -7 16 -15z"/>
<path d="M163 149 c9 -5 17 -19 17 -29 0 -10 -8 -24 -17 -29 -17 -10 -17 -10
-1 -11 25 0 41 35 28 60 -6 11 -18 20 -28 20 -16 -1 -16 -1 1 -11z"/>
</g>
</svg>
